<?xml version="1.0" encoding="UTF-8"?><svg id="Layer_2" xmlns="http://www.w3.org/2000/svg" viewBox="0 0 476 476.02"><defs><style>.cls-1{fill-rule:evenodd;}</style></defs><g id="Layer_1-2"><path class="cls-1" d="M375.34,0c-25.77,0-51.49,9.82-71.12,29.45l-92.29,92.29c-5.43,5.46-5.43,14.28,0,19.74,2.63,2.64,6.2,4.12,9.93,4.12s7.3-1.48,9.93-4.12l92.18-92.18c28.64-28.64,74.2-28.64,102.84,0s28.64,74.09,0,102.73l-98.27,98.16c-28.64,28.64-74.09,28.64-102.73,0-2.63-2.64-6.2-4.13-9.93-4.13s-7.3,1.49-9.93,4.13c-2.64,2.63-4.12,6.2-4.12,9.93s1.48,7.3,4.12,9.93c39.26,39.26,103.14,39.26,142.41,0l98.19-98.27c39.26-39.26,39.26-103.06,0-142.32C426.92,9.82,401.12,0,375.35,0h0ZM198.81,176.53c-25.77,0-51.46,9.82-71.09,29.45L29.45,304.25c-39.26,39.26-39.26,103.06,0,142.32,39.26,39.26,103.14,39.26,142.41,0l92.18-92.31c5.43-5.46,5.43-14.28,0-19.74-5.46-5.43-14.28-5.43-19.74,0l-92.29,92.2c-28.64,28.64-74.09,28.64-102.73,0-28.64-28.64-28.64-74.09,0-102.73l98.19-98.19c28.64-28.64,74.09-28.64,102.73,0,2.62,2.63,6.19,4.11,9.91,4.11s7.29-1.48,9.91-4.11c2.63-2.62,4.11-6.19,4.11-9.91s-1.48-7.29-4.11-9.91c-19.63-19.63-45.43-29.45-71.2-29.45h0Z"/></g></svg>