<?xml version="1.0" encoding="UTF-8"?><svg id="Layer_2" xmlns="http://www.w3.org/2000/svg" viewBox="0 0 441.34 438.38"><g id="Layer_1-2"><g><path d="M164.49,335.12c0,33.34-27.03,60.38-60.38,60.38s-60.38-27.03-60.38-60.38,27.03-60.38,60.38-60.38,60.38,27.03,60.38,60.38"/><path d="M439.25,313.26c-.88-5.25-2.62-8.75-3.5-13.12-11.38-39.38-46.38-158.38-58.62-207.38C365.75,49,353.5,0,301,0c-29.75,0-65.62,14-65.62,79.62v90.12h-28V79.62C207.38,14,171.5,0,141.75,0c-53.38,0-65.62,49-76.12,92.75-12.25,49-47.25,168-59.5,207.38-1.75,4.38-2.62,7.88-3.5,12.25v.88c-1.75,7-2.62,14-2.62,21.88,0,56.88,46.38,103.25,103.25,103.25s104.12-46.38,104.12-103.25v-52.5h27.12v52.5c0,56.88,46.38,103.25,103.25,103.25s103.25-46.38,103.25-103.25c.88-7.88,0-14.88-1.75-21.88h0ZM300.13,18.38c28.88,0,42,19.25,51.62,51.62-14-7.88-30.62-13.12-48.12-13.12-18.38,0-36.75,7-51.62,18.38,1.75-50.75,28-56.88,48.12-56.88Zm-158.38,0c20.12,0,46.38,6.12,48.12,56.88-14.88-12.25-33.25-18.38-51.62-18.38s-34.12,4.38-48.12,13.12c9.62-32.38,22.75-51.62,51.62-51.62Zm-37.62,402.5c-47.25,0-85.75-38.5-85.75-85.75,0-6.12,.88-12.25,1.75-17.5,0-.88,1.75-5.25,3.5-12.25,12.25-33.25,43.75-56,80.5-56,47.25,0,85.75,38.5,85.75,85.75s-38.5,85.75-85.75,85.75Zm0-189c-25.38,0-48.12,8.75-65.62,23.62,14.88-50.75,35-119.88,43.75-155.75,12.25-15.75,33.25-25.38,56.88-25.38,19.25,0,38.5,9.62,51.62,26.25v177.62c-19.25-28-50.75-46.38-86.62-46.38h0Zm103.25,33.26v-77h27.12v77h-27.12Zm44.62-165.38c14-16.62,32.38-26.25,51.62-26.25,22.75,0,43.75,9.62,56,25.38,8.75,35,28.88,105,43.75,155.75-17.5-14.88-41.12-23.62-65.62-23.62-35.88,0-67.38,18.38-85.75,46.38V99.74Zm85.75,321.12c-47.25,0-85.75-38.5-85.75-85.75s38.5-85.75,85.75-85.75c36.75,0,68.25,23.62,80.5,56,1.75,6.12,3.5,10.5,3.5,12.25,.88,5.25,1.75,11.38,1.75,17.5,.88,47.25-37.62,85.75-85.75,85.75Z"/><path d="M399.87,335.12c0,34.31-27.81,62.12-62.12,62.12s-62.12-27.81-62.12-62.12,27.81-62.12,62.12-62.12,62.12,27.81,62.12,62.12"/></g></g></svg>