<?xml version="1.0" encoding="UTF-8"?><svg id="Layer_2" xmlns="http://www.w3.org/2000/svg" viewBox="0 0 629.45 560"><defs><style>.cls-1{fill-rule:evenodd;}</style></defs><g id="Layer_1-2"><g><path class="cls-1" d="M56.48,285.41l149.19,149.19,69.19,4.32-4.32-69.19L123.5,220.55c-10.81,28.11-36.76,56.21-67.03,64.86h0Z"/><path class="cls-1" d="M6.75,237.84l32.43,32.43c30.27-8.65,58.38-34.59,64.86-64.86l2.16-2.16-32.43-32.43c-28.11-28.11-95.14,36.76-67.03,67.03h0Z"/><path d="M270.54,108.11h246.49v28.1h-246.49v-28.1Z"/><path class="cls-1" d="M270.54,185.95h246.49v30.27h-246.49v-30.27Z"/><path class="cls-1" d="M270.54,265.95h246.49v28.11h-246.49v-28.11Z"/><path class="cls-1" d="M281.35,343.79h235.68v28.11h-220.54v-15.14l-15.14-12.97Z"/><path d="M300.81,421.62h216.22v28.11h-216.22v-28.11Z"/><path class="cls-1" d="M171.07,0H504.04l125.41,129.73v430.27H171.07v-123.24l23.79,21.62,12.97,2.16v62.7h384.86V144.87l-103.79-108.11H207.81v233.51l-36.76-36.76V0h.01Z"/></g></g></svg>