<?xml version="1.0" encoding="UTF-8"?><svg id="Layer_2" xmlns="http://www.w3.org/2000/svg" viewBox="0 0 387.69 516.6"><g id="Layer_1-2"><g><path d="M301.55,96.94h79.28c-.84-1.07-1.62-2.17-2.61-3.14L293.9,9.47c-.96-.98-2.05-1.76-3.12-2.59V86.16c0,5.95,4.83,10.77,10.77,10.77h0Z"/><path d="M301.55,118.48c-17.82,0-32.31-14.49-32.31-32.31V0H32.31C14.54,0,0,14.54,0,32.31V484.08c0,17.77,14.54,32.31,32.31,32.31l313.38,.21h.11c11.2,0,21.64-4.3,29.62-12.28,7.97-7.86,12.28-18.41,12.28-29.61V118.48h-86.14Zm-129.23-43.2c29.72,0,53.85,24.12,53.85,53.85s-24.12,53.85-53.85,53.85-53.85-24.23-53.85-53.85c0-29.72,24.12-53.85,53.85-53.85Zm107.69,376.89H64.63v-21.54h215.38v21.54Zm0-53.85H64.63v-21.54h215.38v21.54Zm0-53.85H64.63v-21.54h215.38v21.54Zm-215.38-73.95c0-38.66,20.59-72.55,51.3-91.55,13.82,15.62,33.95,25.53,56.39,25.53s42.57-9.92,56.39-25.54c30.71,19,51.3,52.9,51.3,91.55H64.63Z"/></g></g></svg>